<?xml version="1.0" encoding="utf-8"?>
<!-- Generator: Adobe Illustrator 24.1.1, SVG Export Plug-In . SVG Version: 6.00 Build 0)  -->
<svg version="1.1" id="Layer_1" xmlns="http://www.w3.org/2000/svg" xmlns:xlink="http://www.w3.org/1999/xlink" x="0px" y="0px"
	 viewBox="0 0 512 512" style="enable-background:new 0 0 512 512;" xml:space="preserve">
<style type="text/css">
	.st0{fill:#444444;}
</style>
<g>
	<path class="st0" d="M351.2,256c0,52.6-42.6,95.2-95.2,95.2s-95.2-42.6-95.2-95.2s42.6-95.2,95.2-95.2
		C308.6,160.8,351.2,203.4,351.2,256z M255.4,142.5L255.4,142.5h230.1C443.7,58.1,356.6,0,256,0C174.5,0,102,38.1,55.1,97.4
		l87.8,150.1C147.2,189,195.9,142.9,255.4,142.5L255.4,142.5z M256,369.4c-49.1,0-90.9-31.2-106.7-74.8L43.4,113.4
		C16,154.2,0,203.2,0,256c0,128.8,95.2,235.4,219.1,253.3l88.3-152.2C292,365,274.5,369.4,256,369.4L256,369.4z M493.7,160.8h-176
		c31.1,20.2,51.7,55.3,51.7,95.2c0,19.6-5,38.1-13.8,54.2l0.1,0L239,511.4c5.6,0.4,11.3,0.6,17,0.6c141.4,0,256-114.6,256-256
		C512,222.4,505.5,190.2,493.7,160.8z"/>
</g>
</svg>
